<?xml version="1.0" encoding="utf-8"?>
<!-- Generator: Adobe Illustrator 27.9.0, SVG Export Plug-In . SVG Version: 6.00 Build 0)  -->
<svg version="1.1" id="Layer_1" xmlns="http://www.w3.org/2000/svg" xmlns:xlink="http://www.w3.org/1999/xlink" x="0px" y="0px"
	 viewBox="0 0 319.3 104.4" style="enable-background:new 0 0 319.3 104.4;" xml:space="preserve">
<style type="text/css">
	.st0{fill-rule:evenodd;clip-rule:evenodd;fill:#E74E0F;}
	.st1{fill-rule:evenodd;clip-rule:evenodd;fill:#003761;}
</style>
<g>
	<path class="st0" d="M68.1,47.6c2.9,0.6,4.8,3.4,4.2,6.4c-0.6,2.9-3.4,4.8-6.4,4.2c-2.9-0.6-4.8-3.4-4.2-6.4
		C62.3,48.9,65.1,47,68.1,47.6L68.1,47.6z"/>
	<path class="st0" d="M20.9,38.3c2.3,0.5,3.9,2.8,3.4,5.1c-0.5,2.3-2.8,3.9-5.1,3.4c-2.4-0.5-3.9-2.8-3.4-5.1
		C16.2,39.4,18.5,37.8,20.9,38.3L20.9,38.3z"/>
	<path class="st0" d="M17,52.5c1.5,0.3,2.5,1.8,2.2,3.3c-0.3,1.5-1.8,2.5-3.3,2.2c-1.5-0.3-2.5-1.8-2.2-3.3
		C14,53.1,15.5,52.2,17,52.5L17,52.5z"/>
	<path class="st0" d="M39.8,77.2c1.7,0.3,2.8,2,2.5,3.8c-0.3,1.7-2,2.8-3.8,2.5c-1.7-0.3-2.8-2-2.5-3.8
		C36.4,77.9,38.1,76.8,39.8,77.2L39.8,77.2z"/>
	<path class="st0" d="M29.8,30.2c1.7,0.4,2.9,2.1,2.5,3.8c-0.4,1.7-2.1,2.9-3.8,2.5c-1.7-0.4-2.9-2.1-2.5-3.8
		C26.3,30.9,28,29.8,29.8,30.2L29.8,30.2z"/>
	<path class="st0" d="M40.1,28c1.1,0.2,1.8,1.3,1.6,2.4c-0.2,1.1-1.3,1.8-2.4,1.6c-1.1-0.2-1.8-1.3-1.6-2.4
		C37.9,28.5,39,27.8,40.1,28L40.1,28z"/>
	<path class="st0" d="M53.2,28.1c2.4,0.5,3.9,2.8,3.4,5.1c-0.5,2.3-2.8,3.9-5.1,3.4c-2.3-0.5-3.9-2.8-3.4-5.1
		C48.6,29.2,50.9,27.7,53.2,28.1L53.2,28.1z"/>
	<path class="st0" d="M63.2,38.2c1.4,0.3,2.3,1.6,2,3c-0.3,1.4-1.6,2.3-3,2c-1.4-0.3-2.3-1.6-2-3C60.4,38.8,61.8,37.9,63.2,38.2
		L63.2,38.2z"/>
	<path class="st0" d="M65.2,63.6c1.6,0.3,2.7,1.9,2.4,3.6c-0.3,1.6-1.9,2.7-3.6,2.4c-1.6-0.3-2.7-1.9-2.4-3.6
		C62,64.3,63.6,63.3,65.2,63.6L65.2,63.6z"/>
	<path class="st0" d="M59,72.9c0.8,0.2,1.3,0.9,1.1,1.7c-0.2,0.8-0.9,1.3-1.7,1.1c-0.8-0.2-1.3-0.9-1.1-1.7
		C57.5,73.3,58.2,72.8,59,72.9L59,72.9z"/>
	<path class="st0" d="M50.8,76.9c1.2,0.2,1.9,1.4,1.7,2.6c-0.2,1.2-1.4,1.9-2.6,1.7c-1.2-0.2-1.9-1.4-1.7-2.6
		C48.5,77.4,49.6,76.7,50.8,76.9L50.8,76.9z"/>
	<path class="st0" d="M27.1,70.2c2.6,0.5,4.3,3.1,3.8,5.7c-0.5,2.6-3.1,4.3-5.7,3.8c-2.6-0.5-4.3-3.1-3.8-5.7
		C21.9,71.3,24.5,69.6,27.1,70.2L27.1,70.2z"/>
	<path class="st0" d="M19,63.3c0.9,0.2,1.5,1.1,1.3,2c-0.2,0.9-1.1,1.5-2,1.3c-0.9-0.2-1.5-1.1-1.3-2C17.2,63.7,18.1,63.1,19,63.3
		L19,63.3z"/>
</g>
<path class="st1" d="M110.2,61.3c0,7.4-5,12.5-12.4,12.5c-7.4,0-12.4-5-12.4-12.5v-8.7c0-7.4,5-12.5,12.4-12.5
	c7.4,0,12.4,5.1,12.4,12.5V61.3L110.2,61.3z M105.8,52.2c0-5-3-8.1-8-8.1c-5,0-8,3-8,8.1v9.4c0,5,3,8.1,8,8.1c5.1,0,8-3,8-8.1V52.2
	L105.8,52.2z"/>
<path class="st1" d="M138.8,51.6c0-4.7-2.8-7.4-7.4-7.4c-2.6,0-5.1,0.4-7.4,1.1v26.3c0,1.2-1,2.2-2.2,2.2c-1.2,0-2.2-1-2.2-2.2V44.5
	c0-1.3,0.8-2.4,2.1-2.8c3-1.1,6.3-1.6,9.8-1.6c7.1,0,11.8,4.8,11.8,11.8v19.7c0,1.2-1,2.2-2.2,2.2s-2.2-1-2.2-2.2V51.6L138.8,51.6z"
	/>
<path class="st1" d="M153.6,35.3c0-1.2,1-2.2,2.2-2.2c1.2,0,2.2,1,2.2,2.2v5.4h7.4c1.2,0,2.1,0.9,2.1,2.1c0,1.2-1,2.1-2.1,2.1H158
	V65c0,2.8,1.8,4.5,4.1,4.5c1,0,2.8-0.3,3.4-0.3c0.9,0,2.1,0.8,2.1,2.1c0,1-0.7,1.9-1.8,2.1c-1.2,0.2-2.5,0.3-3.7,0.3
	c-4.7,0-8.5-3.6-8.5-8.9V35.3L153.6,35.3z"/>
<path class="st1" d="M198.4,61.3c0,7.4-5,12.5-12.4,12.5c-7.4,0-12.4-5-12.4-12.5v-8.7c0-7.4,5-12.5,12.4-12.5
	c7.4,0,12.4,5.1,12.4,12.5V61.3L198.4,61.3z M194,52.2c0-5-3-8.1-8-8.1c-5,0-8,3-8,8.1v9.4c0,5,3,8.1,8,8.1c5,0,8-3,8-8.1V52.2
	L194,52.2z"/>
<path class="st1" d="M207.5,35.3c0-1.2,1-2.2,2.2-2.2c1.2,0,2.2,1,2.2,2.2v5.4h7.4c1.2,0,2.1,0.9,2.1,2.1c0,1.2-1,2.1-2.1,2.1h-7.4
	V65c0,2.8,1.8,4.5,4.1,4.5c1,0,2.8-0.3,3.4-0.3c0.9,0,2.1,0.8,2.1,2.1c0,1-0.7,1.9-1.8,2.1c-1.2,0.2-2.5,0.3-3.7,0.3
	c-4.7,0-8.5-3.6-8.5-8.9V35.3L207.5,35.3z"/>
<path class="st1" d="M232,58.3v3.6c0,4.7,2.8,7.8,7.4,7.8c2.6,0,5-0.8,7.4-1.8c0.3-0.1,0.6-0.2,0.9-0.2c1.2,0,2.2,0.9,2.2,2.1
	c0,0.8-0.5,1.6-1.2,1.9c-2.9,1.4-6,2.1-9.3,2.1c-7.1,0-11.8-4.8-11.8-11.8v-10c0-7.1,4.7-11.8,11.8-11.8c7.1,0,11.8,4.8,11.8,11.8
	v3.4c0,1.7-1.4,3-3,3H232L232,58.3z M246.9,51.6c0-4.7-2.8-7.4-7.4-7.4c-4.7,0-7.4,2.8-7.4,7.4v2.7h14.8V51.6L246.9,51.6z"/>
<path class="st1" d="M269.3,60.6l-7.8,12.1c-0.4,0.6-1.1,1-1.8,1c-1.2,0-2.2-0.9-2.2-2.3c0-0.4,0.1-0.8,0.3-1.2l9-13.6L258,43.5
	c-0.3-0.4-0.4-0.8-0.4-1.2c0-1.1,1-2.2,2.2-2.2c0.7,0,1.4,0.4,1.9,1l7.6,11.8l7.6-11.8c0.4-0.6,1.1-1,1.8-1c1.1,0,2.2,0.9,2.2,2.2
	c0,0.4-0.1,0.8-0.4,1.2l-8.7,13.3l9,13.6c0.3,0.4,0.3,0.8,0.3,1.2c0,1.2-0.8,2.3-2.2,2.3c-0.7,0-1.4-0.4-1.8-1L269.3,60.6
	L269.3,60.6z"/>
<path class="st1" d="M288.8,35.3c0-1.2,1-2.2,2.2-2.2c1.2,0,2.2,1,2.2,2.2v5.4h7.4c1.2,0,2.1,0.9,2.1,2.1c0,1.2-1,2.1-2.1,2.1h-7.4
	V65c0,2.8,1.8,4.5,4.1,4.5c1,0,2.8-0.3,3.4-0.3c0.9,0,2.1,0.8,2.1,2.1c0,1-0.7,1.9-1.8,2.1c-1.2,0.2-2.5,0.3-3.7,0.3
	c-4.7,0-8.5-3.6-8.5-8.9V35.3L288.8,35.3z"/>
</svg>
